<svg width="1440" height="1024" viewBox="0 0 1440 1024" fill="none" xmlns="http://www.w3.org/2000/svg">
<rect width="687" height="1237" transform="matrix(-1 0 0 1 1132 0)" fill="url(#paint0_linear_2016_27)"/>
<rect width="698" height="1440" transform="matrix(1.19249e-08 -1 -1 -1.19249e-08 1440 1024)" fill="url(#paint1_linear_2016_27)"/>
<rect width="447" height="1440" transform="matrix(-1.19249e-08 1 1 1.19249e-08 0 0)" fill="url(#paint2_linear_2016_27)"/>
<g opacity="0.1">
<rect x="111" y="285" width="550" height="1" fill="#AC6AFF"/>
<rect x="111" y="378" width="550" height="1" fill="#AC6AFF"/>
<rect x="111" y="471" width="550" height="1" fill="#AC6AFF"/>
<rect x="111" y="564" width="550" height="1" fill="#AC6AFF"/>
<rect x="111" y="657" width="550" height="1" fill="#AC6AFF"/>
<rect x="154" y="196" width="550" height="1" transform="rotate(90 154 196)" fill="#AC6AFF"/>
<rect x="247" y="196" width="550" height="1" transform="rotate(90 247 196)" fill="#AC6AFF"/>
<rect x="340" y="196" width="550" height="1" transform="rotate(90 340 196)" fill="#AC6AFF"/>
<rect x="433" y="196" width="550" height="1" transform="rotate(90 433 196)" fill="#AC6AFF"/>
<rect x="526" y="196" width="550" height="1" transform="rotate(90 526 196)" fill="#AC6AFF"/>
<rect x="619" y="196" width="550" height="1" transform="rotate(90 619 196)" fill="#AC6AFF"/>
<rect x="111" y="196" width="550" height="120" fill="url(#paint3_linear_2016_27)"/>
<rect width="550" height="181" transform="matrix(1 0 0 -1 111 746)" fill="url(#paint4_linear_2016_27)"/>
</g>
<defs>
<linearGradient id="paint0_linear_2016_27" x1="0" y1="618.5" x2="687" y2="618.5" gradientUnits="userSpaceOnUse">
<stop offset="0.134344" stop-color="#0E0C15"/>
<stop offset="1" stop-color="#0E0C15" stop-opacity="0"/>
</linearGradient>
<linearGradient id="paint1_linear_2016_27" x1="0" y1="720" x2="698" y2="720" gradientUnits="userSpaceOnUse">
<stop offset="0.265905" stop-color="#0E0C15"/>
<stop offset="1" stop-color="#0E0C15" stop-opacity="0"/>
</linearGradient>
<linearGradient id="paint2_linear_2016_27" x1="0" y1="720" x2="447" y2="720" gradientUnits="userSpaceOnUse">
<stop stop-color="#0E0C15"/>
<stop offset="1" stop-color="#0E0C15" stop-opacity="0"/>
</linearGradient>
<linearGradient id="paint3_linear_2016_27" x1="386" y1="196" x2="386" y2="316" gradientUnits="userSpaceOnUse">
<stop stop-color="#17141E"/>
<stop offset="1" stop-color="#17141F" stop-opacity="0"/>
</linearGradient>
<linearGradient id="paint4_linear_2016_27" x1="275" y1="0" x2="275" y2="181" gradientUnits="userSpaceOnUse">
<stop stop-color="#17141E"/>
<stop offset="1" stop-color="#17141F" stop-opacity="0"/>
</linearGradient>
</defs>
</svg>
