<svg width="1372" height="954" viewBox="0 0 1372 954" fill="none" xmlns="http://www.w3.org/2000/svg">
<rect x="5.5" y="5.5" width="1361" height="943" stroke="#26242C"/>
<path d="M7 3C7 3.55228 7.44772 4 8 4H10C10.5523 4 11 4.44772 11 5V6C11 6.55228 10.5523 7 10 7H8C7.44772 7 7 7.44772 7 8V10C7 10.5523 6.55228 11 6 11H5C4.44772 11 4 10.5523 4 10V8C4 7.44772 3.55228 7 3 7H1C0.447715 7 0 6.55228 0 6V5C0 4.44772 0.447715 4 1 4H3C3.55228 4 4 3.55228 4 3V1C4 0.447715 4.44772 0 5 0H6C6.55228 0 7 0.447715 7 1V3Z" fill="#ADA8C4"/>
<path d="M1368 3C1368 3.55228 1368.45 4 1369 4H1371C1371.55 4 1372 4.44772 1372 5V6C1372 6.55228 1371.55 7 1371 7H1369C1368.45 7 1368 7.44772 1368 8V10C1368 10.5523 1367.55 11 1367 11H1366C1365.45 11 1365 10.5523 1365 10V8C1365 7.44772 1364.55 7 1364 7H1362C1361.45 7 1361 6.55228 1361 6V5C1361 4.44772 1361.45 4 1362 4H1364C1364.55 4 1365 3.55228 1365 3V1C1365 0.447715 1365.45 0 1366 0H1367C1367.55 0 1368 0.447715 1368 1V3Z" fill="#ADA8C4"/>
<path d="M1368 946C1368 946.552 1368.45 947 1369 947H1371C1371.55 947 1372 947.448 1372 948V949C1372 949.552 1371.55 950 1371 950H1369C1368.45 950 1368 950.448 1368 951V953C1368 953.552 1367.55 954 1367 954H1366C1365.45 954 1365 953.552 1365 953V951C1365 950.448 1364.55 950 1364 950H1362C1361.45 950 1361 949.552 1361 949V948C1361 947.448 1361.45 947 1362 947H1364C1364.55 947 1365 946.552 1365 946V944C1365 943.448 1365.45 943 1366 943H1367C1367.55 943 1368 943.448 1368 944V946Z" fill="#ADA8C4"/>
<path d="M7 946C7 946.552 7.44772 947 8 947H10C10.5523 947 11 947.448 11 948V949C11 949.552 10.5523 950 10 950H8C7.44772 950 7 950.448 7 951V953C7 953.552 6.55228 954 6 954H5C4.44772 954 4 953.552 4 953V951C4 950.448 3.55228 950 3 950H1C0.447715 950 0 949.552 0 949V948C0 947.448 0.447715 947 1 947H3C3.55228 947 4 946.552 4 946V944C4 943.448 4.44772 943 5 943H6C6.55228 943 7 943.448 7 944V946Z" fill="#ADA8C4"/>
</svg>
