<svg width="550" height="550" viewBox="0 0 550 550" fill="none" xmlns="http://www.w3.org/2000/svg">
<g opacity="0.1">
<rect y="89" width="550" height="1" fill="#AC6AFF"/>
<rect y="182" width="550" height="1" fill="#AC6AFF"/>
<rect y="275" width="550" height="1" fill="#AC6AFF"/>
<rect y="368" width="550" height="1" fill="#AC6AFF"/>
<rect y="461" width="550" height="1" fill="#AC6AFF"/>
<rect x="43" width="550" height="1" transform="rotate(90 43 0)" fill="#AC6AFF"/>
<rect x="136" width="550" height="1" transform="rotate(90 136 0)" fill="#AC6AFF"/>
<rect x="229" width="550" height="1" transform="rotate(90 229 0)" fill="#AC6AFF"/>
<rect x="322" width="550" height="1" transform="rotate(90 322 0)" fill="#AC6AFF"/>
<rect x="415" width="550" height="1" transform="rotate(90 415 0)" fill="#AC6AFF"/>
<rect x="508" width="550" height="1" transform="rotate(90 508 0)" fill="#AC6AFF"/>
<rect width="550" height="120" fill="url(#paint0_linear_68_280)"/>
<rect width="550" height="181" transform="matrix(1 0 0 -1 0 550)" fill="url(#paint1_linear_68_280)"/>
</g>
<defs>
<linearGradient id="paint0_linear_68_280" x1="275" y1="0" x2="275" y2="120" gradientUnits="userSpaceOnUse">
<stop stop-color="#17141E"/>
<stop offset="1" stop-color="#17141F" stop-opacity="0"/>
</linearGradient>
<linearGradient id="paint1_linear_68_280" x1="275" y1="0" x2="275" y2="181" gradientUnits="userSpaceOnUse">
<stop stop-color="#17141E"/>
<stop offset="1" stop-color="#17141F" stop-opacity="0"/>
</linearGradient>
</defs>
</svg>
