<svg width="32" height="32" viewBox="0 0 32 32" fill="none" xmlns="http://www.w3.org/2000/svg">
<g filter="url(#filter0_d_850_6143)">
<path d="M13.125 0C5.88794 0 0 5.88794 0 13.125C0 18.96 3.845 24.0756 9.40256 25.7141L12.2864 31.4817C12.3642 31.6375 12.4839 31.7685 12.632 31.86C12.7801 31.9516 12.9508 32.0001 13.1249 32.0001C13.299 32.0001 13.4697 31.9516 13.6178 31.86C13.7659 31.7685 13.8856 31.6375 13.9634 31.4817L16.8471 25.7144C22.405 24.0759 26.25 18.9602 26.25 13.125C26.25 5.88794 20.3621 0 13.125 0ZM13.125 16.875C11.0571 16.875 9.375 15.1929 9.375 13.125C9.375 11.0571 11.0571 9.375 13.125 9.375C15.1929 9.375 16.875 11.0571 16.875 13.125C16.875 15.1929 15.1929 16.875 13.125 16.875Z" fill="#D62575"/>
</g>
<defs>
<filter id="filter0_d_850_6143" x="-24" y="-24" width="74.25" height="80" filterUnits="userSpaceOnUse" color-interpolation-filters="sRGB">
<feFlood flood-opacity="0" result="BackgroundImageFix"/>
<feColorMatrix in="SourceAlpha" type="matrix" values="0 0 0 0 0 0 0 0 0 0 0 0 0 0 0 0 0 0 127 0" result="hardAlpha"/>
<feOffset/>
<feGaussianBlur stdDeviation="12"/>
<feComposite in2="hardAlpha" operator="out"/>
<feColorMatrix type="matrix" values="0 0 0 0 1 0 0 0 0 1 0 0 0 0 1 0 0 0 0.67 0"/>
<feBlend mode="normal" in2="BackgroundImageFix" result="effect1_dropShadow_850_6143"/>
<feBlend mode="normal" in="SourceGraphic" in2="effect1_dropShadow_850_6143" result="shape"/>
</filter>
</defs>
</svg>
